<?xml version="1.0" encoding="utf-8"?>
<!-- Generator: Adobe Illustrator 22.0.1, SVG Export Plug-In . SVG Version: 6.00 Build 0)  -->
<svg version="1.1" id="Layer_1" xmlns="http://www.w3.org/2000/svg" xmlns:xlink="http://www.w3.org/1999/xlink" x="0px" y="0px"
	 viewBox="0 0 400 400" style="enable-background:new 0 0 400 400;" xml:space="preserve">
<style type="text/css">
	.st0{fill:#F69241;}
	.st1{fill:#F48042;}
	.st2{fill:#FFFFFF;}
</style>
<g>
	<path class="st0" d="M391.4,200.8c0-105.6-85.6-191.2-191.2-191.2C94.6,9.6,9,95.2,9,200.8C9,306.4,94.6,392,200.2,392
		C305.8,392,391.4,306.4,391.4,200.8"/>
	<path class="st1" d="M203.7,305.6c-60.4,0-109.1-51.5-104.5-112.9c3.9-50.8,44.6-92,95.4-96.3c35.1-3,67.1,11.5,88.1,35.7
		c4.9,5.7,13.3,6.8,19.4,2.5l0.3-0.2c7.1-5,8.4-15,2.7-21.6c-26-30-65.1-48.4-108.4-46.2c-68.5,3.5-124,59.1-127.3,127.6
		c-3.7,77.1,57.9,140.9,134.2,140.9c40.5,0,76.8-18,101.4-46.3c5.8-6.6,4.5-16.8-2.7-21.8c-6.2-4.3-14.7-3.2-19.6,2.5
		C263.5,291.6,235.2,305.6,203.7,305.6"/>
	<path class="st2" d="M198.4,165.6c0.1-3.5,3-6.3,6.5-6.4c4.3-0.1,8.7,0,13.2,0v-22.1c-6.4,0-12.2,0-18.1,0
		c-18.5,0.1-27.9,9.5-28,28.1c0,4.3,0,8.6,0,13.4h-12.4v22.6h12.6v63.3h26.3v-63.7h17.7c0.8-7.5,1.5-14.7,2.3-22.3h-20.2
		C198.3,173.9,198.2,169.7,198.4,165.6"/>
</g>
</svg>
