<?xml version="1.0" encoding="utf-8"?>
<!-- Generator: Adobe Illustrator 22.0.1, SVG Export Plug-In . SVG Version: 6.00 Build 0)  -->
<svg version="1.1" id="Layer_1" xmlns="http://www.w3.org/2000/svg" xmlns:xlink="http://www.w3.org/1999/xlink" x="0px" y="0px"
	 viewBox="0 0 41.5 33.6" style="enable-background:new 0 0 41.5 33.6;" xml:space="preserve">
<style type="text/css">
	.st0{fill:#F27442;}
	.st1{fill:#F79B52;}
	.st2{fill:#F8A361;}
</style>
<g>
	<path class="st0" d="M36.3,9.1H5.2C2.9,9.1,1,7.3,1,5c0-2.3,1.9-4.1,4.1-4.1h31.1c2.3,0,4.1,1.9,4.1,4.1
		C40.4,7.3,38.6,9.1,36.3,9.1"/>
	<path class="st1" d="M31.7,20.9H5.2c-2.3,0-4.1-1.9-4.1-4.1c0-2.3,1.9-4.1,4.1-4.1h26.5c2.3,0,4.1,1.9,4.1,4.1
		C35.9,19.1,34,20.9,31.7,20.9"/>
	<path class="st2" d="M26.6,32.8H5.2c-2.3,0-4.1-1.9-4.1-4.1c0-2.3,1.9-4.1,4.1-4.1h21.4c2.3,0,4.1,1.9,4.1,4.1
		C30.7,30.9,28.9,32.8,26.6,32.8"/>
</g>
</svg>
