<?xml version="1.0" encoding="utf-8"?>
<!-- Generator: Adobe Illustrator 22.0.1, SVG Export Plug-In . SVG Version: 6.00 Build 0)  -->
<svg version="1.1" id="Layer_1" xmlns="http://www.w3.org/2000/svg" xmlns:xlink="http://www.w3.org/1999/xlink" x="0px" y="0px"
	 viewBox="0 0 37.3 41.8" style="enable-background:new 0 0 37.3 41.8;" xml:space="preserve">
<style type="text/css">
	.st0{fill:#F99333;}
</style>
<g>
	<path class="st0" d="M20.9,37.2c-9.2,0-16.7-7.7-16.3-16.9C5,11.5,12.5,4.4,21.3,4.6c4.7,0.1,9,2.2,11.9,5.6c0.8,0.9,2.1,1.1,3,0.4
		c0,0,0,0,0,0c1.1-0.8,1.3-2.3,0.5-3.3C32.8,2.7,27-0.1,20.5,0C9.6,0.2,0.5,9,0,19.9c-0.6,12,9,21.9,20.9,21.9
		c6.3,0,12-2.8,15.8-7.3c0.9-1,0.6-2.6-0.5-3.3l0,0c-1-0.7-2.3-0.5-3.1,0.4C30.2,35,25.8,37.2,20.9,37.2z"/>
	<circle class="st0" cx="20.6" cy="20.9" r="8.5"/>
</g>
</svg>
