<?xml version="1.0" encoding="utf-8"?>
<!-- Generator: Adobe Illustrator 22.0.1, SVG Export Plug-In . SVG Version: 6.00 Build 0)  -->
<svg version="1.1" id="Layer_1" xmlns="http://www.w3.org/2000/svg" xmlns:xlink="http://www.w3.org/1999/xlink" x="0px" y="0px"
	 viewBox="0 0 97.4 129.9" style="enable-background:new 0 0 97.4 129.9;" xml:space="preserve">
<style type="text/css">
	.st0{fill:#8C9194;}
	.st1{fill:#F79342;}
</style>
<g>
	<path class="st0" d="M52.7,77.9c-16.4,0-29.8-13.3-29.8-29.8c0-16.4,13.3-29.7,29.8-29.7c10.3,0,19.4,5.3,24.7,13.2
		c2.1-1.5,4.7-3.3,6.9-4.8C77.4,16.6,65.8,10,52.7,10c-21,0-38.1,17.1-38.1,38.1c0,21,17.1,38.1,38.1,38.1
		c13.1,0,24.8-6.7,31.6-16.8l-6.9-4.8C72.1,72.6,63,77.9,52.7,77.9"/>
	<path class="st0" d="M44.1,35.1c0,1.4-1.2,2.6-2.6,2.6c-1.5,0-2.6-1.2-2.6-2.6c0-1.4,1.2-2.6,2.6-2.6
		C42.9,32.4,44.1,33.6,44.1,35.1"/>
	<path class="st0" d="M51.7,33.1c0,1-0.8,1.8-1.8,1.8S48,34.1,48,33.1c0-1,0.8-1.8,1.8-1.8S51.7,32,51.7,33.1"/>
	<path class="st0" d="M59.9,32.4c0,1-0.8,1.8-1.8,1.8c-1,0-1.8-0.8-1.8-1.8c0-1,0.8-1.8,1.8-1.8C59.1,30.6,59.9,31.4,59.9,32.4"/>
	<path class="st0" d="M45.5,38.7c-0.5,0-1-0.4-1-0.9c-0.1-0.6,0.4-1.1,0.9-1.2L65,34.6c0.6-0.1,1.1,0.4,1.2,0.9
		c0.1,0.6-0.4,1.1-0.9,1.2l-19.6,2.1C45.6,38.7,45.5,38.7,45.5,38.7"/>
	<path class="st0" d="M40,43.5c-1.3,0.2-2.4,0.3-3.1,0.4c-1.3,0.2-2.5,0.4-2.5,1.8c0,0.9,0.7,1.6,1.6,1.6c0.2,0,0.4,0,0.5-0.1
		c0.3-0.1,1.2-0.2,2.5-0.4l1.3-3.3C40.2,43.5,40.1,43.5,40,43.5"/>
	<path class="st0" d="M49.5,42.3c-1.9,0.2-3.9,0.5-5.7,0.7l-1.3,3.3c4.2-0.5,10-1.3,15.4-1.9l-1.7-3C54.2,41.7,51.8,42,49.5,42.3"/>
	<path class="st0" d="M63.6,43.7c0.9-0.1,1.5-0.9,1.4-1.8c-0.1-0.8-0.8-1.4-1.6-1.4c-0.1,0-0.1,0-0.2,0c0,0-1.9,0.2-4.7,0.6l1.7,3
		C61.4,44,62.5,43.9,63.6,43.7"/>
	<path class="st0" d="M62.5,52.6c0.2,0.3,0.5,0.5,0.9,0.5c0.2,0,0.3,0,0.5-0.1c0.5-0.3,0.7-0.9,0.4-1.4l-3.9-7
		c-0.7,0.1-1.5,0.2-2.3,0.3L62.5,52.6z"/>
	<path class="st0" d="M57.2,38.8c-0.3-0.5-0.9-0.7-1.4-0.4c-0.5,0.3-0.7,0.9-0.4,1.4l0.7,1.2c0.8-0.1,1.5-0.2,2.3-0.3L57.2,38.8z"/>
	<path class="st0" d="M32.7,63.1c-0.3,0.8,0.1,1.7,0.9,2c0.2,0.1,0.4,0.1,0.6,0.1c0.6,0,1.2-0.4,1.5-1l6.7-17.3
		c-1.4,0.2-2.6,0.3-3.6,0.5L32.7,63.1z"/>
	<path class="st0" d="M44.8,40.4c0.3-0.8-0.1-1.7-0.9-2c-0.8-0.3-1.7,0.1-2,0.9l-1.4,3.6c1-0.1,2.2-0.3,3.6-0.5L44.8,40.4z"/>
	<path class="st1" d="M28.1,100.8c-0.9-0.2-2-0.3-3-0.3c-3.3,0-6.1,0.8-8.2,2.4c-2.2,1.6-3.3,3.7-3.3,6.3c0,0.9,0.1,1.7,0.4,2.5
		c0.2,0.7,0.6,1.5,1.1,2.1c0.5,0.6,1.1,1.2,1.8,1.8c2.1,1.6,4.8,2.4,8.2,2.4c0.9,0,1.8-0.1,2.9-0.3c0.9-0.2,1.9-0.5,2.8-0.8l0.3-0.1
		v-6l-0.9,0.7c-0.5,0.4-1.1,0.7-1.7,0.9c-0.6,0.2-1.3,0.3-2,0.3c-1.4,0-2.5-0.3-3.3-0.9c-0.8-0.6-1.2-1.4-1.2-2.4
		c0-1.1,0.4-1.9,1.1-2.5c0.7-0.6,1.8-0.9,3.2-0.9c0.7,0,1.4,0.1,1.9,0.3c0.6,0.2,1.3,0.5,2,1l0.8,0.5v-5.8l-0.3-0.1
		C29.9,101.2,29.1,100.9,28.1,100.8"/>
	<path class="st1" d="M50.2,102.7c-0.7-0.6-1.4-1.1-2.2-1.4c-1.2-0.5-2.6-0.8-4.3-0.8c-3.1,0-5.6,0.8-7.4,2.3
		c-1.9,1.6-2.8,3.7-2.8,6.3c0,1.3,0.2,2.5,0.7,3.6c0.5,1.1,1.1,2,2,2.8c1.8,1.6,4.1,2.4,7.1,2.4c1.7,0,3.2-0.3,4.5-0.8
		c0.9-0.4,1.8-0.9,2.6-1.6v1.8h7.9V101h-7.9V102.7z M49.4,106.7c0.8,0.6,1.1,1.4,1.1,2.4c0,1.1-0.4,1.9-1.1,2.4
		c-0.8,0.6-1.9,0.9-3.2,0.9c-1.4,0-2.5-0.3-3.2-0.9c-0.8-0.6-1.1-1.4-1.1-2.4c0-1,0.4-1.9,1.1-2.5c0.8-0.6,1.8-0.9,3.2-0.9
		C47.6,105.7,48.6,106.1,49.4,106.7"/>
	<rect x="62.9" y="92.8" class="st1" width="8.5" height="24.4"/>
	<path class="st1" d="M77.3,99.2c0.8,0.6,1.7,0.9,2.8,0.9c1.1,0,2-0.3,2.7-0.8c0.8-0.6,1.2-1.3,1.2-2.2c0-0.9-0.4-1.6-1.2-2.1
		c-0.7-0.5-1.6-0.8-2.7-0.8c-1,0-2,0.3-2.7,0.8c-0.6,0.4-1,0.9-1.2,1.5h-0.1v0.6C76.1,98,76.5,98.7,77.3,99.2"/>
	<rect x="75.9" y="101" class="st1" width="8.5" height="16.2"/>
	<path class="st0" d="M63.2,40.6c0,0-3,0.4-7,0.8c0,0,0,0,0,0c-2.1,0.3-4.4,0.5-6.8,0.8c-3.4,0.4-6.9,0.9-9.5,1.2
		c-1.3,0.2-2.4,0.3-3.1,0.4v3.2l0,0c0.5-0.1,1.2-0.2,2.1-0.3c0.2,0,0.5-0.1,0.8-0.1c0,0,0,0,0,0c0.8-0.1,1.7-0.2,2.8-0.4
		c4.2-0.5,10.1-1.3,15.4-1.9c0.7-0.1,1.5-0.2,2.2-0.3c1.2-0.1,2.4-0.3,3.5-0.4L63.2,40.6z"/>
</g>
</svg>
